<?xml version="1.0"?>
<svg version="1.1" xmlns="http://www.w3.org/2000/svg" width="400px" height="200px" style="border: dashed 2px #aaa">
    <path fill="#000305"
        d="M143.81494140625,114.6923828125l0-4.5517578125q0-4.724609375,0.158447265625-9.377197265625t0.273681640625-9.377197265625q0-0.89306640625-0.0576171875-1.98779296875q-0.02880859375-0.31689453125-0.02880859375-0.60498046875q0-0.72021484375,0.115234375-1.41162109375q0.14404296875-0.921875,0.705810546875-1.58447265625t1.858154296875-0.66259765625q1.06591796875,0,1.627685546875,0.23046875t0.792236328125,0.677001953125t0.25927734375,1.12353515625t0.02880859375,1.570068359375q0,4.7822265625-0.115234375,9.59326171875q-0.08642578125,3.19775390625-0.08642578125,6.3955078125q0,1.61328125,0.02880859375,3.2265625q0.0576171875,4.7822265625,0.446533203125,9.564453125t1.310791015625,9.44921875q2.880859375-0.115234375,5.76171875-0.2880859375t5.76171875-0.1728515625q0.2880859375,0,0.821044921875,0.0576171875t1.06591796875,0.20166015625t0.907470703125,0.37451171875t0.37451171875,0.66259765625q0,0.2880859375-0.25927734375,0.48974609375t-0.48974609375,0.31689453125l-0.0576171875,0q-0.4609375,0.23046875-1.829345703125,0.446533203125t-3.111328125,0.331298828125t-3.65869140625,0.20166015625t-3.60107421875,0.14404296875t-2.924072265625,0.08642578125t-1.52685546875,0.02880859375l-0.25927734375,0q-0.69140625,0-1.5556640625-0.23046875q-1.037109375-0.2880859375-1.29638671875-1.12353515625q-0.5185546875-2.1318359375-0.821044921875-4.422119140625t-0.4609375-4.652587890625t-0.158447265625-4.724609375z M169.38746582031,119.3017578125q0-1.64208984375,0.417724609375-3.385009765625t1.3251953125-3.14013671875t2.290283203125-2.27587890625t3.341796875-0.878662109375q1.46923828125,0,3.096923828125,0.504150390625t2.981689453125,1.4404296875t2.203857421875,2.290283203125t0.849853515625,3.02490234375q0,2.0166015625-0.734619140625,3.83154296875t-2.059814453125,3.240966796875t-3.096923828125,2.2470703125t-3.845947265625,0.821044921875q-1.69970703125,0-2.96728515625-0.619384765625t-2.117431640625-1.656494140625t-1.267578125-2.44873046875t-0.417724609375-2.99609375z M173.62232910156,119.244140625q0,0.5185546875,0.158447265625,1.52685546875t0.475341796875,1.973388671875t0.821044921875,1.6708984375t1.224365234375,0.648193359375q1.52685546875-0.1728515625,2.520751953125-0.993896484375t1.61328125-2.002197265625t0.8642578125-2.56396484375t0.244873046875-2.62158203125q0-1.58447265625-0.619384765625-2.650390625t-2.031005859375-1.728515625q0,0.0576171875,0.0576171875,0.0576171875t0.0576171875-0.0576171875l-0.72021484375-0.1728515625q-0.2880859375-0.115234375-0.705810546875-0.25927734375t-0.821044921875-0.6337890625q-1.12353515625,0.4033203125-1.742919921875,1.037109375t-0.936279296875,1.541259765625t-0.388916015625,2.175048828125t-0.072021484375,3.0537109375z M191.21487304687,117.74609375q0-1.58447265625,0.302490234375-3.385009765625t1.037109375-3.298583984375t2.031005859375-2.4775390625t3.31298828125-0.9794921875q1.35400390625,0,2.62158203125,0.446533203125t2.39111328125,1.224365234375q0.345703125-0.576171875,1.0947265625-0.705810546875t1.3251953125-0.129638671875q0.23046875,0,0.648193359375,0.02880859375t0.821044921875,0.1728515625t0.705810546875,0.345703125t0.360107421875,0.576171875q0.23046875,2.0166015625,0.31689453125,4.018798828125t0.25927734375,3.989990234375q0.2880859375,3.71630859375,0.89306640625,7.34619140625t0.60498046875,7.34619140625q0,1.75732421875-0.158447265625,3.802734375t-0.83544921875,3.788330078125t-1.973388671875,2.895263671875t-3.60107421875,1.15234375q-2.07421875,0-3.183349609375-0.734619140625t-2.002197265625-2.463134765625q0.0576171875-0.576171875,0.734619140625-0.763427734375t1.166748046875-0.187255859375q0.4609375,0,0.936279296875,0.08642578125t0.763427734375,0.2880859375l0.72021484375,0.4609375q1.06591796875-2.189453125,1.29638671875-4.7822265625t0.23046875-5.0126953125q0-2.0166015625-0.20166015625-3.989990234375t-0.4033203125-3.961181640625q-2.0166015625,3.65869140625-6.13623046875,3.65869140625q-1.9013671875,0-3.096923828125-0.806640625t-1.84375-2.04541015625t-0.89306640625-2.79443359375t-0.244873046875-3.111328125z M194.75833007812,118.00537109375q0,0.72021484375,0.0576171875,1.858154296875t0.302490234375,2.232666015625t0.705810546875,1.886962890625t1.29638671875,0.792236328125q1.58447265625,0,2.50634765625-1.23876953125t1.454833984375-2.952880859375t0.849853515625-3.54345703125t0.806640625-3.010498046875q-0.0576171875-0.4033203125-0.0576171875-0.792236328125l0-0.792236328125q-0.66259765625-1.23876953125-1.93017578125-2.146240234375t-2.62158203125-1.224365234375q-0.1728515625-0.02880859375-0.31689453125-0.02880859375q-0.806640625,0-1.3251953125,0.95068359375q-0.66259765625,1.15234375-1.037109375,2.751220703125t-0.532958984375,3.154541015625t-0.158447265625,2.10302734375z M215.26054199219,119.3017578125q0-1.64208984375,0.417724609375-3.385009765625t1.3251953125-3.14013671875t2.290283203125-2.27587890625t3.341796875-0.878662109375q1.46923828125,0,3.096923828125,0.504150390625t2.981689453125,1.4404296875t2.203857421875,2.290283203125t0.849853515625,3.02490234375q0,2.0166015625-0.734619140625,3.83154296875t-2.059814453125,3.240966796875t-3.096923828125,2.2470703125t-3.845947265625,0.821044921875q-1.69970703125,0-2.96728515625-0.619384765625t-2.117431640625-1.656494140625t-1.267578125-2.44873046875t-0.417724609375-2.99609375z M219.49540527344,119.244140625q0,0.5185546875,0.158447265625,1.52685546875t0.475341796875,1.973388671875t0.821044921875,1.6708984375t1.224365234375,0.648193359375q1.52685546875-0.1728515625,2.520751953125-0.993896484375t1.61328125-2.002197265625t0.8642578125-2.56396484375t0.244873046875-2.62158203125q0-1.58447265625-0.619384765625-2.650390625t-2.031005859375-1.728515625q0,0.0576171875,0.0576171875,0.0576171875t0.0576171875-0.0576171875l-0.72021484375-0.1728515625q-0.2880859375-0.115234375-0.705810546875-0.25927734375t-0.821044921875-0.6337890625q-1.12353515625,0.4033203125-1.742919921875,1.037109375t-0.936279296875,1.541259765625t-0.388916015625,2.175048828125t-0.072021484375,3.0537109375z" />
    <path fill="#" d="" />
</svg>